<mxfile host="app.diagrams.net" modified="2021-12-07T19:07:07.222Z" agent="5.0 (Windows NT 10.0; Win64; x64) AppleWebKit/537.36 (KHTML, like Gecko) Chrome/96.0.4664.45 Safari/537.36" etag="a2NaZycnqKrr7A1_VFVo" version="15.9.1" type="github">
  <diagram id="M1KNuNMasZc9wrpFiAIQ" name="Page-1">
    <mxGraphModel dx="1278" dy="579" grid="1" gridSize="10" guides="1" tooltips="1" connect="1" arrows="1" fold="1" page="1" pageScale="1" pageWidth="850" pageHeight="1100" math="0" shadow="0">
      <root>
        <mxCell id="0" />
        <mxCell id="1" parent="0" />
        <mxCell id="ZxO7-QEdUO5hWlScNP8r-5" value="" style="edgeStyle=orthogonalEdgeStyle;rounded=0;orthogonalLoop=1;jettySize=auto;html=1;" edge="1" parent="1" source="ZxO7-QEdUO5hWlScNP8r-1" target="ZxO7-QEdUO5hWlScNP8r-4">
          <mxGeometry relative="1" as="geometry" />
        </mxCell>
        <mxCell id="ZxO7-QEdUO5hWlScNP8r-1" value="Actor" style="shape=umlActor;verticalLabelPosition=bottom;verticalAlign=top;html=1;" vertex="1" parent="1">
          <mxGeometry x="370" y="30" width="30" height="60" as="geometry" />
        </mxCell>
        <mxCell id="ZxO7-QEdUO5hWlScNP8r-2" value="Login&lt;br&gt;" style="text;html=1;strokeColor=none;fillColor=none;align=center;verticalAlign=middle;whiteSpace=wrap;rounded=0;" vertex="1" parent="1">
          <mxGeometry x="60" y="30" width="110" height="50" as="geometry" />
        </mxCell>
        <mxCell id="ZxO7-QEdUO5hWlScNP8r-8" value="Is valid&lt;br&gt;" style="edgeStyle=orthogonalEdgeStyle;rounded=0;orthogonalLoop=1;jettySize=auto;html=1;entryX=0;entryY=0.5;entryDx=0;entryDy=0;" edge="1" parent="1" source="ZxO7-QEdUO5hWlScNP8r-4" target="ZxO7-QEdUO5hWlScNP8r-6">
          <mxGeometry relative="1" as="geometry" />
        </mxCell>
        <mxCell id="ZxO7-QEdUO5hWlScNP8r-17" value="Is invalid&lt;br&gt;" style="edgeStyle=orthogonalEdgeStyle;rounded=0;orthogonalLoop=1;jettySize=auto;html=1;" edge="1" parent="1" source="ZxO7-QEdUO5hWlScNP8r-4" target="ZxO7-QEdUO5hWlScNP8r-16">
          <mxGeometry relative="1" as="geometry" />
        </mxCell>
        <mxCell id="ZxO7-QEdUO5hWlScNP8r-4" value="&lt;br&gt;&lt;br&gt;Login" style="rhombus;whiteSpace=wrap;html=1;verticalAlign=top;" vertex="1" parent="1">
          <mxGeometry x="345" y="200" width="75" height="80" as="geometry" />
        </mxCell>
        <mxCell id="ZxO7-QEdUO5hWlScNP8r-6" value="&lt;br&gt;Return to home page&lt;br&gt;" style="whiteSpace=wrap;html=1;verticalAlign=top;" vertex="1" parent="1">
          <mxGeometry x="660" y="210" width="120" height="60" as="geometry" />
        </mxCell>
        <mxCell id="ZxO7-QEdUO5hWlScNP8r-18" style="edgeStyle=orthogonalEdgeStyle;rounded=0;orthogonalLoop=1;jettySize=auto;html=1;entryX=0.045;entryY=0.588;entryDx=0;entryDy=0;entryPerimeter=0;" edge="1" parent="1" source="ZxO7-QEdUO5hWlScNP8r-16" target="ZxO7-QEdUO5hWlScNP8r-4">
          <mxGeometry relative="1" as="geometry">
            <Array as="points">
              <mxPoint x="270" y="400" />
              <mxPoint x="270" y="247" />
            </Array>
          </mxGeometry>
        </mxCell>
        <mxCell id="ZxO7-QEdUO5hWlScNP8r-16" value="Wrong username or password&lt;br&gt;" style="whiteSpace=wrap;html=1;verticalAlign=top;" vertex="1" parent="1">
          <mxGeometry x="322.5" y="370" width="120" height="60" as="geometry" />
        </mxCell>
      </root>
    </mxGraphModel>
  </diagram>
</mxfile>
